<svg id="A_Human_Sitting" data-name="A Human/Sitting" xmlns="http://www.w3.org/2000/svg" width="351.6" height="408.5064" viewBox="0 0 293 340.422" transform="scale(-1,1)">
  <g id="Head_Front" data-name="Head/Front" transform="translate(122 11.472)">
    <g id="Head" transform="translate(4 6.95)">
      <path id="Head-2" data-name="Head" d="M0,73,8.262,34.49C3.655,29.081.536,22.452,1.057,15.026c1.5-21.4,31.292-16.692,37.086-5.891s5.107,38.2-2.382,40.129c-2.987.77-9.349-1.116-15.825-5.019L24,73Z" fill="#dbc5b1"/>
    </g>
    <path id="Hair" d="M10.418,46.308C7.406,32.906-1.175,23.771.135,17.782a10.2,10.2,0,0,1,6.986-7.45S10.057-1.543,26.056.23,51.819,8.648,47.6,23.268c-3.876,0-8.556-1.4-15.027,1-3.08,1.143-4.406,7.09-4.406,7.09H25.246s-4.257-7.057-8.4-5.187-1.881,9.087-1.881,9.087l-1.44,11.049Z" transform="translate(0 -0.05)"/>
  </g>
  <g id="Bottom_Skinny_Jeans_1" data-name="Bottom/Skinny Jeans 1" transform="translate(0 174.422)">
    <g id="Seat" transform="translate(0 42)">
      <g id="Seat-2" data-name="Seat" transform="translate(55)">
        <path id="Seat_Stuff" data-name="Seat Stuff" d="M27.623,0h77.255L115,124H0Z" fill="#c5cfd6"/>
        <path id="Seat_Stuff-2" data-name="Seat Stuff" d="M27.623,0h23.76L65.6,124H0Z" fill="rgba(0,0,0,0.1)"/>
      </g>
    </g>
    <path id="Skin" d="M57.131,141.549c-1-12.65-2.861-56.444-1-76.715.785-8.557,1.633-16.7,2.465-23.927-17.858,32.116-47.08,79.1-47.08,79.1L0,114.744S13.566,70.05,22.247,51.638c9.91-21.017,19.2-39.015,23.112-45.355,6.151-9.971,16.86-6.492,22.518-.456C76.114.882,89.933,7.236,89.924,14.31,89.895,35.474,70.58,135.223,69.572,141.529c-.534,3.337-3.812,5.375-6.872,5.375C59.977,146.9,57.427,145.292,57.131,141.549Z" transform="translate(180.077 14.928)" fill="#dbc5b1"/>
    <path id="LegLower" d="M0,111.841,5.118,10.331c3.688-17.553,34.907-9.406,34.894,0-.029,21.355-12.857,95.127-12.866,101.489Z" transform="translate(219.152 8.029) rotate(20)" fill="#29292c"/>
    <g id="Right_Shoe" data-name="Right Shoe" transform="translate(189.086 100.429) rotate(30)">
      <path id="shoe" d="M4.474,5.033A2,2,0,0,0,1.908,6.381L0,13.106A64.242,64.242,0,0,0,.9,21H57.3s2.2-7.268-2.538-7.848-7.87-1.047-7.87-1.047L20.68.419a1,1,0,0,0-1.332.532L17.663,5.039s-4.385,2.046-7.127,2.046Z" transform="translate(1 19)" fill="#e4e4e4"/>
    </g>
    <g id="Right_Shoe-2" data-name="Right Shoe" transform="translate(232 126)">
      <path id="shoe-2" data-name="shoe" d="M4.474,5.033A2,2,0,0,0,1.908,6.381L0,13.106A64.242,64.242,0,0,0,.9,21H57.3s2.2-7.268-2.538-7.848-7.87-1.047-7.87-1.047L20.68.419a1,1,0,0,0-1.332.532L17.663,5.039s-4.385,2.046-7.127,2.046Z" transform="translate(1 19)" fill="#e4e4e4"/>
    </g>
    <path id="Leg_and_Butt" data-name="Leg and Butt" d="M170.77,36.433c0,26.567-12.617,88.537-12.625,94.387L131,130.841S136.96,47.9,135.227,47s-71.051,6.921-91.84,6.921C13.408,53.925,1.006,35.02,0,0H59.386c12.092,1.294,75.162,14.015,98.586,18.388C168,20.261,170.77,29.115,170.77,36.433Z" transform="translate(102)" fill="#111214"/>
  </g>
  <path id="hair-2" data-name="hair" d="M81.7,22.929a28.641,28.641,0,0,0-1.342-4.463,20.893,20.893,0,0,0-2.632-4.9,37.021,37.021,0,0,0-6.958-7.558C65.989,2.107,59.908-.143,53.928.588a17.275,17.275,0,0,0-8.445,3.441C43.23,5.762,41.062,8.314,38.143,8.5c-3.176.2-6.086-2.606-8.633-4.339A23.187,23.187,0,0,0,20.228.228,15.426,15.426,0,0,0,5.449,5.82C1.326,10.734-1.672,17.94,1.036,24.45a8.354,8.354,0,0,0,2.08,3.076c.852.775,2.154,1.6,2.5,2.839.367,1.317-.729,3.016-1.155,4.2a12.386,12.386,0,0,0-.931,5.34,13.772,13.772,0,0,0,4.215,7.938,14.005,14.005,0,0,0,7.269,3.736,20.377,20.377,0,0,0,5.468.422,17,17,0,0,0,2.589-.52,2.34,2.34,0,0,1,2.059.5,16.883,16.883,0,0,0,10.891,2.7c3.286-.274,7.073-1.071,9.754-3.325,2.977-2.5,2.918-5.954,2.217-9.642.742.368,2.8.6,1.568-.871a6.641,6.641,0,0,0-2.028-1.16A7.379,7.379,0,0,1,45.5,38.131c-2.277-2.622.023-7.957,2.884-8.836,4.252-1.306,5.2,4.713,8.239,6.27,1.745.9,3.571-.328,4.878-1.578a19.553,19.553,0,0,0,3.976-6.147c.849-1.858,1.639-3.742,2.5-5.591.4-.863,1.8-3.3,1.1-4.28,3.045-.608,6.437.659,9.06,2.32a6.2,6.2,0,0,1,2.489,2.656c.124.26.394,1.032.732,1.064.63.059.395-.712.333-1.079" transform="matrix(0.777, -0.629, 0.629, 0.777, 82.572, 51.474)"/>
  <g id="Body_Long_Sleeve_1" data-name="Body/Long Sleeve 1" transform="translate(91.929 48.198)">
    <path id="Skin-2" data-name="Skin" d="M26.477,132.825-2.672,114.946,7.019,98.833l27.841,28.125a85.878,85.878,0,0,1,20.054,12c1.159,1.448,2.4,4.207-3.148,2.885s-11.444-2.462-12.522-.67,1.958,4.622-.018,6.959a.731.731,0,0,1-.583.273Q35.99,148.4,26.477,132.825ZM10.4,23.565,48.3,12.186A85.861,85.861,0,0,1,68.314.113c1.823-.343,4.841-.144,1.069,4.135s-7.546,8.948-6.469,10.742,5,.442,6.136,3.283q1.135,2.842-19.5,4.071L20.078,39.686Z" transform="translate(101.126 0)" fill="#dbc5b1"/>
    <path id="Coat_Back" data-name="Coat Back" d="M13.491,0C38.653,26.79,69.342,44.272,111.2,59.778L101.9,78.364C58.717,74.292,35.63,71.04,17.531,44.209,12.988,37.475,4.866,14.3,0,2.271Z" transform="matrix(0.914, 0.407, -0.407, 0.914, 54.308, 17.648)" fill="#d1cbbc"/>
    <path id="Shirt" d="M0,114H77S50.837,34.208,50.27,4.472c-.019-1.011-1.886-2.792-2.712-2.558C38.5,4.472,28.172,0,28.172,0,9.917,29.358,3.6,65.5,0,114Z" transform="translate(10.071 21.224)" fill="#f2f2f2"/>
    <path id="Coat_Front" data-name="Coat Front" d="M1.421,147.606C-5.1,103.784,12.038,43.024,27.926,12.377A5.417,5.417,0,0,1,32.867,9H44.8l.016.047c4.019.033,8.494.193,13.375.353,21.921.722,52.027,1.443,85.805-9.4l4.078,20.373C116.857,40.448,85.252,56,57.557,53.791c12.025,51.585,11.471,93.815-15.079,93.815Z" transform="translate(0 12.224)" fill="#eae0c6"/>
  </g>
</svg>
