<svg xmlns="http://www.w3.org/2000/svg" xmlns:xlink="http://www.w3.org/1999/xlink" width="258.5916" height="239.7264" viewBox="0 0 215.493 199.772">
  <defs>
    <clipPath id="clip-path">
      <path id="Mask" d="M106.57,197.6a79.936,79.936,0,0,0,76.938-58.188c1.938-6.886,31.985-29.591,31.985-37.1C215.493,58.223,150.7,0,106.57,0S-29.518,178.633,9.367,197.6c23.225,11.329,38.46-25.54,41.558-22.537A79.685,79.685,0,0,0,106.57,197.6Z" transform="translate(0.243 0.027)" fill="none"/>
    </clipPath>
  </defs>
  <g id="Column" transform="translate(-42.243 -0.027)">
    <g id="Human" transform="translate(42)">
      <ellipse id="Background" cx="79.912" cy="79.842" rx="79.912" ry="79.842" transform="translate(26.901 37.945)" fill="#ddaac4"/>
      <path id="Mask-2" data-name="Mask" d="M106.57,197.6a79.936,79.936,0,0,0,76.938-58.188c1.938-6.886,31.985-29.591,31.985-37.1C215.493,58.223,150.7,0,106.57,0S-29.518,178.633,9.367,197.6c23.225,11.329,38.46-25.54,41.558-22.537A79.685,79.685,0,0,0,106.57,197.6Z" transform="translate(0.243 0.027)" fill="none"/>
      <g id="Human-2" data-name="Human" clip-path="url(#clip-path)">
        <g id="Human-3" data-name="Human" transform="translate(6.33 -20.93)">
          <g id="Bottom_Skinny_Jeans_1" data-name="Bottom/Skinny Jeans 1" transform="translate(0 134.122)">
            <path id="Leg" d="M82.277.034C67.159,12.361,72.957,120.5,71.948,121.859c-.673.907-71.892,15.416-71.892,15.416l2.053,8.37s83.313-4.1,88.167-10.286c6.949-8.854,17.144-99.057,17.144-99.057Z" transform="matrix(0.574, -0.819, 0.819, 0.574, 26.081, 89.363)" fill="#b28b67"/>
            <path id="Pant" d="M.055,133.99l3.616,13.481c41.405,4.773,68.7-1.1,78.3-10.24S99.16,38.443,99.16,38.443L72.263.03C36.275,27.182,57.77,116.124,56.851,118.158S34.1,121.793.055,133.99Z" transform="matrix(0.574, -0.819, 0.819, 0.574, 30.887, 81.21)" fill="#69a1ac"/>
            <g id="Right_Show" data-name="Right Show" transform="translate(140.49 146.929) rotate(20)">
              <path id="shoe" d="M4.474,5.033A2,2,0,0,0,1.908,6.381L0,13.106A64.242,64.242,0,0,0,.9,21H57.3s2.2-7.268-2.538-7.848-7.87-1.047-7.87-1.047L20.68.419a1,1,0,0,0-1.332.532L17.663,5.039s-4.385,2.046-7.127,2.046Z" transform="translate(1 19)" fill="#e4e4e4"/>
            </g>
            <path id="Leg-2" data-name="Leg" d="M81.181,0,40.239,98.2,0,181.226H9.494L113.363,0Z" transform="translate(2.687 21.985)" fill="#997659"/>
            <g id="Left_Shot" data-name="Left Shot" transform="translate(0 179.298)">
              <path id="shoe-2" data-name="shoe" d="M3.539,4.048A1.583,1.583,0,0,0,1.51,5.114L0,10.43A50.741,50.741,0,0,0,.713,16.67H45.339s1.739-5.746-2.008-6.2S37.1,9.639,37.1,9.639L16.362.4a.791.791,0,0,0-1.054.421L13.975,4.053S10.506,5.67,8.337,5.67Z" transform="translate(0.791 14.95)" fill="#e4e4e4"/>
            </g>
            <path id="Pant-2" data-name="Pant" d="M0,163.979l21.1,3.953C37.406,143.972,105.668,45.733,113.152,0H66.189C41.2,33.06,15.548,139.623,0,163.979Z" transform="translate(6.321 21.985)" fill="#89c5cc"/>
          </g>
          <g id="Head_Front" data-name="Head/Front" transform="translate(34.007 13.88) rotate(-7)">
            <g id="Head" transform="translate(45.222 25.772)">
              <path id="Head-2" data-name="Head" d="M0,60.688,6.919,28.673C3.061,24.177.449,18.666.885,12.491,2.143-5.3,27.09-1.386,31.943,7.593s4.277,31.757-2,33.361c-2.5.64-7.83-.928-13.253-4.173l3.4,23.906Z" transform="translate(0 0)" fill="#d4a181"/>
            </g>
            <path id="hair" d="M43.853,44.893c-3.083,0-5.942-1.956-8.049-5.508A25.2,25.2,0,0,1,32.66,26.877c0-.32.007-.649.02-.977a51.022,51.022,0,0,0-6.331,5.476,49.526,49.526,0,0,1-6.85,5.851A14.736,14.736,0,0,1,11.273,39.9a10.182,10.182,0,0,1-8.161-4.481A16.246,16.246,0,0,1,0,25.919a12.96,12.96,0,0,1,.637-4.113,9.881,9.881,0,0,1,2-3.5,9.413,9.413,0,0,1,3.5-2.432,13.6,13.6,0,0,1,5.134-.911c11.838,0,17.625,1.7,22.674,4.246a16.157,16.157,0,0,1,4.345-6.725,6.736,6.736,0,0,1,2-1.407,9.4,9.4,0,0,1,1.67-.711,42.393,42.393,0,0,1,12.3-2.051c.658-.023,1.317-.034,1.958-.034.244,0,.489,0,.729,0a8.231,8.231,0,0,1,2.461-5.861,8.344,8.344,0,1,1,6.367,14.188A42.4,42.4,0,0,1,56.408,18.2a17.29,17.29,0,0,1,.54,4.46,24.99,24.99,0,0,1-.467,4.638A3.91,3.91,0,0,0,53.6,25.772,4.963,4.963,0,0,0,49.973,27.3a5.055,5.055,0,0,0-1.4,3.457,6.382,6.382,0,0,0,1.294,4.056,4.62,4.62,0,0,0,3.37,1.752A22.324,22.324,0,0,1,48.9,42.511,7.591,7.591,0,0,1,43.853,44.893Z" transform="translate(5.862 16.627)" fill="#191847"/>
          </g>
          <g id="Body_Long_Sleeve_1" data-name="Body/Long Sleeve 1" transform="translate(0 73.104)">
            <path id="Skin" d="M25.151,91.912c-1.079-1.813-2.3-3.625-6.03-2.7-6.648,1.65-12.286,5.882-18.485.174-.762-.7-1.32-2.9,1.278-4.022,6.475-2.8,16.04-8.053,17.591-10.091q3.172-4.169,19.667-47.6l16.213,3.215Q30.928,76.422,29.152,79.154c-2.662,4.1-.178,11.611.74,15.566a5,5,0,0,1-1.129.141C26.811,94.862,26.03,93.386,25.151,91.912ZM155.077,24.2l28.669-12.58A67.921,67.921,0,0,1,198.3.223c1.4-.446,3.787-.58,1.238,3.141s-5.063,7.747-4.045,9.051,3.969-.135,5.135,1.984q1.166,2.121-14.921,5.072L164.231,35.921Z" transform="translate(0 37.154)" fill="#d4a181"/>
            <path id="Coat_Back" data-name="Coat Back" d="M0,1.764,6.713,0c16.1,13.089,25.186,47.125,35.48,50.835,9.732,3.508,22.625-1.839,37.892-8.87l5.769,10.352C72.888,69.049,43.524,84.8,30.5,78.412,9.69,68.206,1.4,25.973,0,1.764Z" transform="matrix(0.996, 0.087, -0.087, 0.996, 99.605, 2.458)" fill="#dde3e9"/>
            <path id="Shirt" d="M0,90.119H60.537c2.766,0,2.245-3.991,1.845-6-4.615-23.241-22.63-48.295-22.63-81.378L22.29,0C7.847,23.208,2.852,51.782,0,90.119Z" transform="translate(69.626)" fill="#2d2d2e"/>
            <path id="Coat_Front" data-name="Coat Front" d="M0,112.141Q12.26,36.171,71.009,0h6.914s23.514,80.084,12.965,106.719H36.4a198.6,198.6,0,0,1,7.413-40.132Q25.3,99.948,12.689,114.624Z" transform="translate(19.78)" fill="#dde3e9"/>
          </g>
        </g>
      </g>
    </g>
  </g>
</svg>
