<svg xmlns="http://www.w3.org/2000/svg" width="689.138" height="848" viewBox="0 0 689.138 848">
  <g id="Group_2" data-name="Group 2" transform="translate(-556.62 -48)">
    <g id="Scene_Home" data-name="Scene/Home" transform="translate(556.62 48)">
      <g id="Clock" transform="translate(382.239 101.585)">
        <circle id="Clock_Frame" data-name="Clock Frame" cx="53" cy="53" r="53" fill="#f2f2f2"/>
        <circle id="Time" cx="3" cy="3" r="3" transform="translate(50 8)" fill="rgba(0,0,0,0.1)"/>
        <circle id="Time-2" data-name="Time" cx="3" cy="3" r="3" transform="translate(8 50)" fill="rgba(0,0,0,0.1)"/>
        <circle id="Time-3" data-name="Time" cx="3" cy="3" r="3" transform="translate(92 50)" fill="rgba(0,0,0,0.1)"/>
        <circle id="Time-4" data-name="Time" cx="3" cy="3" r="3" transform="translate(50 92)" fill="rgba(0,0,0,0.1)"/>
        <path id="Hand" d="M2,0,4,35H0Z" transform="translate(51 17)" fill="#afb9c5"/>
        <path id="Hand-2" data-name="Hand" d="M2,0,4,24H0Z" transform="translate(72.113 69.284) rotate(135)" fill="#afb9c5"/>
        <circle id="Time-5" data-name="Time" cx="4" cy="4" r="4" transform="translate(49 49)" fill="#c5cfd6"/>
      </g>
      <g id="Background_Shape_2" data-name="Background Shape 2" transform="translate(0 309.188)" opacity="0.346">
        <path id="Background_Shape" data-name="Background Shape" d="M10.926,200.778c-7.057-89.739-385.7-262.945-456-177.946s-2.715,244.52,144.6,285.369S17.983,290.517,10.926,200.778Z" transform="translate(473 0)" fill="#f2f2f2"/>
        <path id="Background_Shape-2" data-name="Background Shape" d="M.148,170.568C6.483,94.332,346.358-52.814,409.455,19.4s47.126,224.1-85.1,258.8S-6.187,246.805.148,170.568Z" transform="translate(244 88.518)" fill="#dde3e9"/>
      </g>
      <g id="Hanging_Lamp" data-name="Hanging Lamp" transform="translate(76.949)">
        <g id="Light" transform="translate(0 187.208)">
          <ellipse id="Hanging_Lamp_Light" data-name="Hanging Lamp Light" cx="42.5" cy="22.5" rx="42.5" ry="22.5" transform="translate(7 12)" fill="#f2f2f2"/>
          <path id="Hanging_Lamp-2" data-name="Hanging Lamp" d="M99,50C99,22.386,76.838,0,49.5,0S0,22.386,0,50" fill="#dde3e9"/>
        </g>
        <rect id="Wire" width="5" height="194.534" transform="translate(47)" fill="#dde3e9"/>
      </g>
      <g id="Hanging_Lamp-3" data-name="Hanging Lamp" transform="translate(203.174)" opacity="0.7">
        <g id="Light-2" data-name="Light" transform="translate(0 139.188)">
          <ellipse id="Hanging_Lamp_Light-2" data-name="Hanging Lamp Light" cx="31.768" cy="18.158" rx="31.768" ry="18.158" transform="translate(5.232 9.684)" fill="#f2f2f2"/>
          <path id="Hanging_Lamp-4" data-name="Hanging Lamp" d="M74,40.351C74,18.066,57.435,0,37,0S0,18.066,0,40.351" fill="#dde3e9"/>
        </g>
        <rect id="Wire-2" data-name="Wire" width="5" height="162.188" transform="translate(35)" fill="#dde3e9"/>
      </g>
      <g id="Lamp" transform="translate(378.325 244.471)">
        <path id="Body" d="M0,27.852,32.51,6.066C37.98,2.4,46.852,2.4,52.323,6.066l86.55,58c5.251,3.519,8.2,8.291,8.2,13.267v384.2" transform="translate(59.233 10)" fill="none" stroke="#cbcbcb" stroke-miterlimit="10" stroke-width="8"/>
        <rect id="Lamp_Base" data-name="Lamp Base" width="59" height="7" rx="3" transform="translate(176.307 470.529)" fill="#afb9c5"/>
        <g id="Lamp_Top" data-name="Lamp Top" transform="translate(47.066 0) rotate(45)">
          <path id="Lamp-2" data-name="Lamp" d="M33,0h0A33,33,0,0,1,66,33V61a0,0,0,0,1,0,0H0a0,0,0,0,1,0,0V33A33,33,0,0,1,33,0Z" transform="translate(0)" fill="#c5cfd6"/>
          <ellipse id="Lamp-3" data-name="Lamp" cx="33" cy="6.5" rx="33" ry="6.5" transform="translate(0.179 53.562)" fill="#f2f2f2"/>
        </g>
      </g>
      <g id="Big_Leaf_Plant" data-name="Big Leaf Plant" transform="translate(8.559 484)">
        <g id="Big_Ass_Leaf" data-name="Big Ass Leaf" transform="translate(23)">
          <path id="leaf" d="M24.258.173a16.915,16.915,0,0,1,8.586.9c5.665,2.4,7.275,9.1,7.2,14.536-.084,5.855-1.327,12.249,3.124,16.966,2.046,2.169,4.591,3.828,6.6,6.037a28.536,28.536,0,0,1,5.078,7.96c2.29,5.326,3.414,11.59,1.32,17.177-1.844,4.919-6.483,9.359-5.48,14.953C51.729,84.543,57.612,89,61.29,93.351c4.163,4.919,8,11.205,8.625,17.656.6,6.182-2.087,12.434-6.217,17.107C55.448,137.451,43.045,142.028,30.54,142c-5.31-.012-11.321-.252-15.9-3.105a8.763,8.763,0,0,1-3.005-3.247,10.586,10.586,0,0,0-2.906-2.908,17.25,17.25,0,0,1-5.535-7.392c-4.538-11.233-.911-25.129,5.441-35.1,1.505-2.363,2.737-4.637,2.006-7.454C9.874,79.848,8,77.2,6.34,74.669a65.318,65.318,0,0,1-4.792-7.582A17.2,17.2,0,0,1,.066,58.2,30.237,30.237,0,0,1,6.578,42.336C10,37.83,14.022,33.518,14.031,27.615c.01-6.257-4.173-11.824-2.391-18.186a12.123,12.123,0,0,1,4.609-6.916C18.539,1,21.564.5,24.258.173Z" transform="translate(0)" fill="#dde3e9"/>
          <path id="middle_thing" data-name="middle thing" d="M1.386,1.176A1.442,1.442,0,0,1,3.222.051c1.033.289,1.013,1.254.986,2.114a28.41,28.41,0,0,0,.934,7.776C6.462,15.274,8.9,20.186,10.836,25.308s2.839,10.4,1.705,15.816C11.473,46.23,9.795,51.2,8.7,56.315c-.964,4.506-1.989,9.257-.522,13.751,1.412,4.326,4.534,7.849,6.783,11.758a55.439,55.439,0,0,1,6.995,26.31,49.2,49.2,0,0,1-.983,12.828c-.573,2.423-1.343,5.7-3.419,7.37-.957.771-2.595,1.038-3.4-.1-.757-1.071-.093-2.73.147-3.872a58.7,58.7,0,0,0,1-15.015,54.212,54.212,0,0,0-2.346-14.36A48.6,48.6,0,0,0,6.84,83.032C4.252,79.191,1.562,75.341.493,70.789c-1.086-4.623-.2-9.327.976-13.862,1.248-4.8,2.883-9.455,4.573-14.122A24.78,24.78,0,0,0,7.363,29.2C5.567,19.794.76,10.968,1.386,1.176Z" transform="translate(21 9)" fill="#c5cfd6"/>
        </g>
        <g id="Big_Ass_Leaf-2" data-name="Big Ass Leaf" transform="translate(32 10)">
          <path id="leaf-2" data-name="leaf" d="M90.892,1.582a21.492,21.492,0,0,1,9.592,5.536c5.373,5.791,3.724,14.543.758,20.935-3.193,6.88-8.031,13.8-5.3,21.69,1.254,3.629,3.362,6.916,4.551,10.573a36.871,36.871,0,0,1,1.749,12.056c-.129,7.49-2.122,15.483-7.531,21-4.763,4.859-12.551,7.7-14.332,14.833-1.858,7.445,2.684,15.781,4.7,22.835,2.283,7.983,3.455,17.411.784,25.367-2.559,7.625-9.02,13.619-16.334,17-14.613,6.75-31.58,5.712-46.232-.828-6.221-2.777-13.145-6.188-17.011-11.946a11.264,11.264,0,0,1-1.809-5.4A13.591,13.591,0,0,0,2.6,150.278,22.24,22.24,0,0,1,.02,138.656c.615-15.645,12.214-30.192,24.936-38.684,3.015-2.012,5.662-4.06,6.293-7.772.659-3.874-.139-7.986-.748-11.839-.6-3.807-1.537-7.6-1.612-11.459a22.446,22.446,0,0,1,2.959-11.283c3.6-6.647,9.379-11.689,16.021-15.372,6.4-3.547,13.392-6.555,16.523-13.532,3.319-7.4,1.355-16.154,6.807-22.751C73.458,3.233,76.625.807,80.262.182,83.749-.417,87.558.57,90.892,1.582Z" fill="#dde3e9"/>
          <path id="middle_thing-2" data-name="middle thing" d="M51.651.811A1.838,1.838,0,0,1,54.387.44c1.057.883.528,2.016.046,3.02a37.22,37.22,0,0,0-2.98,9.7c-1.248,7.006-.968,14.1-1.389,21.182s-2.128,13.805-6.289,19.624c-3.923,5.486-8.49,10.5-12.446,15.977-3.487,4.831-7.174,9.92-7.812,16.012-.614,5.863,1.191,11.672,1.773,17.48,1.2,12.023-1.084,23.737-5.6,34.823a64.286,64.286,0,0,1-7.867,14.676c-1.939,2.569-4.554,6.043-7.858,6.936-1.524.412-3.578-.131-3.922-1.906-.323-1.665,1.321-3.282,2.2-4.508A76.711,76.711,0,0,0,11.275,136.2a71.04,71.04,0,0,0,4.778-18.235,63.555,63.555,0,0,0-.895-17.357c-1.014-5.906-2.143-11.875-1.009-17.826,1.151-6.044,4.647-11.152,8.4-15.9,3.971-5.026,8.323-9.687,12.743-14.327a32.357,32.357,0,0,0,8.673-15.424C46.79,25.049,45.791,12.078,51.651.811Z" transform="translate(32 13)" fill="#c5cfd6"/>
        </g>
        <g id="Big_Ass_Leaf-3" data-name="Big Ass Leaf" transform="translate(0 56)">
          <path id="leaf-3" data-name="leaf" d="M13.306,0C19.2,0,24.382,3.124,27.953,7.558c4.18,5.19,5.024,11.528,6.721,17.714A15.813,15.813,0,0,0,39.517,33.5c2.315,1.9,5.255,2.283,8.026,3.212A18.73,18.73,0,0,1,59.321,48.5c2.155,6.659-.128,13.374.265,20.122.361,6.2,6.471,10.064,11.387,13.035,4.848,2.93,9.215,5.672,10.675,11.379,1.548,6.053,2.068,12.809-.077,18.788-3.57,9.956-14.019,14.34-24.116,15.02-9.163.617-20.684-.352-27.565-7-4.118-3.98-5.609-9.547-5.424-15.085a45.92,45.92,0,0,1,1.679-10.184,45.944,45.944,0,0,0,1.71-7.145c.64-6.484-5.354-7.73-10.455-9.51A24.88,24.88,0,0,1,3.224,65.425C.285,59.881-.948,53.658.814,47.554A20.863,20.863,0,0,1,5.559,39.2c.974-1.059,2.348-1.942,3.227-3.054a4.12,4.12,0,0,0,.359-3.6C7.837,26.931,3.762,22.278,2.3,16.668.989,11.605,1.767,5.3,6.4,2.038A12.089,12.089,0,0,1,13.306,0Z" transform="translate(0)" fill="#c5cfd6"/>
          <path id="middle_thing-3" data-name="middle thing" d="M3.338.641C9.585,7.3,11.283,16.325,11.781,25.076c.279,4.907-.011,10.083,1.43,14.843,1.234,4.074,4.126,7.188,7.106,10.131,6,5.925,12.693,11.948,14.448,20.523,1.03,5.032.335,10.23,1.758,15.207a41.827,41.827,0,0,0,6.343,12.788c2.231,3.076,5.138,5.431,7.577,8.3.744.875,1.81,2.164,1.5,3.4-.359,1.447-2.2,1.905-3.511,1.678-3.049-.53-5.616-3.442-7.61-5.558a47.877,47.877,0,0,1-7.407-10.159,42.71,42.71,0,0,1-4.8-13.2c-.8-4.827-.4-9.858-2.223-14.491-3.067-7.8-10.5-12.4-15.883-18.471-6.7-7.571-5.7-16.993-5.015-26.305.377-5.118.752-10.9-1.834-15.57C2.672,6.406.471,4.743.047,2.715-.342.858,1.78-1.019,3.338.641Z" transform="translate(18 14)" fill="#afb9c5"/>
        </g>
        <path id="Base" d="M0,0C0,38.058,6.211,58,39,58S78,38.058,78,0Z" transform="translate(28 180)" fill="#89c5cc"/>
      </g>
      <g id="Table" transform="translate(229.867 465)">
        <g id="Lamp-4" data-name="Lamp" transform="translate(23)">
          <rect id="Lamp_Base-2" data-name="Lamp Base" width="38" height="9" rx="2" transform="translate(21 144)" fill="#afb9c5"/>
          <path id="Lamp_Body" data-name="Lamp Body" d="M15.5,75a15.5,15.5,0,0,1,0-31H23c6.44-20.872,7.217-44,7.217-44h4.566A167.709,167.709,0,0,0,42,44h6.5a15.5,15.5,0,0,1,0,31Z" transform="translate(8 71)" fill="#dde3e9"/>
          <path id="Shade" d="M4.622,1.679S21.811,0,39,0,73.378,1.679,73.378,1.679L78,81.133S58.5,83,39,83,0,81.133,0,81.133Z" fill="#c5cfd6"/>
        </g>
        <path id="Table-2" data-name="Table" d="M104,104V22H21v82H0V0H125V104Z" transform="translate(0 153)" fill="#f2f2f2"/>
      </g>
      <g id="Plant" transform="translate(429.742 440)">
        <g id="Succulents" transform="translate(13 0)">
          <path id="Thi_Succs_" data-name="Thi Succs!" d="M.381.208C9.214,21.2,24.229,35.781,32.182,57.6c4.716,12.942,6.682,27.015,6.8,41.427.065,7.828-.071,15.662-.108,23.49-.036,7.634-.243,15.219-.891,22.8-.651,7.625-1.38,15.16-1.7,22.833-.25,5.978-.365,12.932-2.391,18.385-1.611,4.337-5.707,4.972-6.794-.288a42.045,42.045,0,0,1-.461-9.193c.085-3.855.31-7.7.424-11.559.46-15.468-.136-30.938.175-46.412.3-15.119,2.248-30.221.1-45.238-1.776-12.4-6.287-23.051-11.471-33.26C10.874,30.771,5.445,21.187,2.075,10.014A53.84,53.84,0,0,1,0,.03Q.235-.079.381.208Z" transform="translate(3 0)" fill="#c1dee2"/>
          <path id="Thi_Succs_2" data-name="Thi Succs!" d="M.974.617C2.723,1.88,3.7,3.728,4.882,5.551c1.47,2.266,3.2,4.313,4.668,6.581C12.615,16.86,15.308,21.879,18.1,26.8a96.064,96.064,0,0,1,11.326,30.1c2.067,11.2,2.625,22.754,3.492,34.117.92,12.044,1.846,24.176,1.968,36.267.055,5.417.347,11.167-.3,16.546-.4,3.349-1.916,6.2-5.323,6.175-7.237-.057-10.634-8.073-12.053-14.646-2.089-9.679-2.506-19.961-2.175-29.86C15.432,93.558,17.5,81.8,18.4,69.912c.95-12.587.413-24.951-3.914-36.8-2.186-5.989-4.724-11.835-7-17.784A57.489,57.489,0,0,0,4.409,7.831C2.951,5.208,1.142,2.826,0,0Z" transform="translate(0 41)" fill="#89c5cc"/>
          <path id="Thi_Succs_3" data-name="Thi Succs!" d="M17.334.518,18,0a66.162,66.162,0,0,1-2.676,7.341,59.91,59.91,0,0,0-1.729,7.136c-1.255,5.681-2.7,11.234-3.889,16.963C7.36,42.777,7.8,54.99,9.342,67.568c1.453,11.881,3.751,23.745,4.845,35.623a163.552,163.552,0,0,1,.432,29.409c-.588,6.383-2.517,14-7.771,13.361-2.474-.3-3.764-3.281-4.284-6.642-.835-5.4-1.01-11.074-1.335-16.443C.5,110.9.358,98.951.214,87.092.078,75.9-.3,64.494.452,53.587a102.687,102.687,0,0,1,6.2-28.758c1.7-4.61,3.317-9.328,5.225-13.721.915-2.107,2.033-3.97,2.949-6.075C15.563,3.339,16.148,1.6,17.334.518Z" transform="translate(67 16)" fill="#c1dee2"/>
          <path id="Thi_Succs_4" data-name="Thi Succs!" d="M.209.3C1.166-1.3,3.272,3.993,3.593,4.66q-.2-.5-.409-.993A44.1,44.1,0,0,1,7.9,13.734c1.069,3.585,1.987,7.242,2.99,10.853,1.882,6.774,4.31,13.356,6.016,20.191a65.7,65.7,0,0,1,1.678,20.1A171.685,171.685,0,0,0,18.4,86.462c.233,3.418,1.344,6.6,2.1,9.892s1.362,6.632,2.263,9.884c.207-.424.233.993.233,1.1a6.829,6.829,0,0,1-.381,2.265,6.1,6.1,0,0,1-3.841,4.212c-3.456.988-6.666-2.157-7.78-5.477A90.858,90.858,0,0,1,7.755,93.3,70.881,70.881,0,0,1,7.1,79.44c.409-9.179,2.07-18.238,2.519-27.414.489-9.99-1.49-19.376-3.147-29.1A84.98,84.98,0,0,0,3.356,9.134,38.761,38.761,0,0,0,1.048,4.061C.558,3.112-.431,1.418.209.3Z" transform="translate(3 76)" fill="#c1dee2"/>
          <path id="Thi_Succs_5" data-name="Thi Succs!" d="M10.252,35.7c-.4,11.445-1.08,22.8-2.606,34.127C6.089,81.38,4.3,92.9,2.8,104.463c-1.459,11.259-2.987,22.7-2.784,34.121.15,8.409-1.244,22.634,8.1,26.784,9.459,4.2,11.488-13.746,12.109-19.67,1.19-11.366.8-22.852.227-34.28-.593-11.729-1.583-23.4-2.81-35.085-1.363-12.981-2.432-26.02-3.29-39.038-.425-6.439-.529-12.867-.412-19.308C14.048,11.911,13.817,5.77,11.656,0l-.339.246" transform="translate(21 25)" fill="#69a1ac"/>
          <path id="Thi_Succs_6" data-name="Thi Succs!" d="M12.083,5.955c-1.7,2.478-3.416,4.932-5.022,7.557C4.186,18.209,1.587,23.432.8,30.147-.831,44.2.481,59.379.8,73.863c.065,2.96-.31,5.83.857,8.647,1.058,2.554,3.035,4.5,4.92,4.49C10.611,86.977,10,77.1,10,72.746c.012-7.623-.843-15.324-.769-22.94a159.271,159.271,0,0,1,1.626-22.278A128.354,128.354,0,0,1,15.729,6.81c.3-.9,2.429-7.872.415-6.671" transform="translate(68 91)" fill="#89c5cc"/>
          <path id="Thi_Succs_7" data-name="Thi Succs!" d="M14.262,0c-2.653,0-2.637,13.226-2.717,14.925-.288,6.131-.221,12.263-.4,18.395-.4,13.381-.889,26.88-2.9,40.107C7.161,80.547,5.907,87.636,4.557,94.7,3.2,101.789,1.387,108.867.5,116.044c-.855,6.9-.372,13.934-.255,20.867a182.673,182.673,0,0,0,1.242,20.877c.225,1.707.49,3.407.773,5.1a40.455,40.455,0,0,0,.5,4.51c.639,2.152,3.379,2.856,5.224,2.519,4.993-.912,8.182-7.18,9.887-11.76,2.178-5.848,3.334-12.192,4.474-18.356a160.431,160.431,0,0,0,2.4-21.181c.722-14.448-.2-28.911-1.24-43.313-.576-8.009-1.241-15.984-2.258-23.943-1.013-7.926-2.313-15.816-3.16-23.765-.615-5.777-1.221-11.561-1.619-17.36C16.371,8.859,16.291,0,14.262,0" transform="translate(48 22)" fill="#69a1ac"/>
          <path id="Thi_Succs_8" data-name="Thi Succs!" d="M26.941,118.139c-.432-13.886-6.014-74.88-7.284-91.672-.318-4.2-3.375-21.7-3.772-26.467-1.075,1.347-.983,22.309-.972,27.126.012,4.765-.578,9.45-.882,14.189-.31,4.836-7.459,67.285-8.386,71.932-1.846,9.244-3.081,18.729-4.033,28.18C.683,150.639-.76,160.358.482,169.618a28.306,28.306,0,0,0,1.473,6.188c.795,2.116,1.339,4.073,1.977,6.287,1.026,3.567,2.883,6.7,5.736,8.169,5.849,3.019,8.99-3.815,10.583-9.765a159.221,159.221,0,0,0,4.94-29.138c.847-11.04,2.1-22.1,1.75-33.22" transform="translate(32 0)" fill="#89c5cc"/>
        </g>
        <g id="Planter" transform="translate(0 159)">
          <rect id="Vase" width="91" height="91" rx="2" transform="translate(10)" fill="#fff"/>
          <rect id="Leg" width="10" height="113" rx="2" transform="translate(0 10)" fill="#c5cfd6"/>
          <rect id="Leg-2" data-name="Leg" width="10" height="113" rx="2" transform="translate(50 10)" fill="#c5cfd6"/>
          <rect id="Leg-3" data-name="Leg" width="10" height="113" rx="2" transform="translate(101 10)" fill="#c5cfd6"/>
        </g>
      </g>
    </g>
    <g id="Group_2-2" data-name="Group 2" transform="translate(368 337)">
      <g id="Group" transform="translate(203 79)">
        <g id="Head" transform="translate(83.127)">
          <g id="Head-2" data-name="Head" transform="translate(60.66 34.848)">
            <path id="Head-3" data-name="Head" d="M0,82.06,9.281,38.77C4.105,32.691.6,25.239,1.187,16.89,2.874-7.166,36.338-1.874,42.847,10.268s5.736,42.94-2.676,45.11c-3.355.865-10.5-1.254-17.777-5.642L26.96,82.06Z" transform="translate(0 0)" fill="#b28b67"/>
          </g>
          <path id="Combined_Shape" data-name="Combined Shape" d="M11.233,42.716h0a6.622,6.622,0,0,1-3.8-2.326A23.489,23.489,0,0,1,3.8,35.009,34.367,34.367,0,0,1,0,20.234,18.715,18.715,0,0,1,6.325,6.047C10.779,2.091,17.138,0,24.713,0a38.114,38.114,0,0,1,9.218,1.014,19.82,19.82,0,0,1,6.207,2.628c2.935,1.965,4.638,4.664,4.795,7.6C39.4,12.762,29.823,13.5,15.647,13.5c-1.062,0-2.169,0-3.291-.012v1.124l13.481,1.125,2.246,6.744c-.171-.013-.348-.02-.528-.02a6.832,6.832,0,0,0-4.331,1.575,14.736,14.736,0,0,0-3.308,3.916,5.4,5.4,0,0,0-3.066-.974,5.521,5.521,0,0,0-3.972,1.741,5.666,5.666,0,0,0-1.645,3.88,6.7,6.7,0,0,0,3.4,6.236c-1.249,2.443-2.3,3.64-3.4,3.881Z" transform="translate(58.413 32.6)" fill="#191847"/>
        </g>
        <g id="Bottom" transform="translate(0 211.335)">
          <path id="Skin" d="M64.177,155.306c-1.124-14.178-3.214-63.329-1.123-86.195.629-6.877,1.293-13.52,1.961-19.722-20.121,36.049-52.078,87.464-52.078,87.464L0,130.939S15.239,80.7,24.991,60C36.123,36.374,46.561,16.143,50.953,9.016,56.756-.4,66.17.853,72.8,5.513c8.066-10.946,28.225-3.7,28.213,5.362-.032,23.792-21.729,136.746-22.862,143.876-.617,3.881-4.492,6.341-8.01,6.341C67.2,161.092,64.5,159.367,64.177,155.306Z" transform="translate(213.519 14.829)" fill="#b28b67"/>
          <path id="Leg_Back" data-name="Leg Back" d="M.028,125.713l5.723-114.1c4.139-19.729,39.213-10.564,39.2.009-.027,24-14.42,106.922-14.428,114.074Z" transform="translate(257.414 9.026) rotate(20)" fill="#1f28cf"/>
          <path id="Leg_Front" data-name="Leg Front" d="M189.843,33.64c0,29.836-13.069,99.968-13.078,106.537l-31.658-1.068s8.3-91.463,7-92.083c-1.95-.93-79.921,10.8-103.306,11.685C15.082,59.988,1.132,39.286,0,0H65.319S149.1,10.008,175.447,13.921C186.727,15.6,189.843,25.422,189.843,33.64Z" transform="translate(125.813 0.282)" fill="#2b44ff"/>
          <g id="Left_Shoe" data-name="Left Shoe" transform="translate(215.753 114.032) rotate(14)">
            <path id="shoe" d="M4.474,5.033A2,2,0,0,0,1.908,6.381L0,13.106A64.242,64.242,0,0,0,.9,21H57.3s2.2-7.268-2.538-7.848-7.87-1.047-7.87-1.047L20.68.419a1,1,0,0,0-1.332.532L17.663,5.039s-4.385,2.046-7.127,2.046Z" transform="translate(1 19)" fill="#e4e4e4"/>
          </g>
          <g id="Right_Shoe" data-name="Right Shoe" transform="translate(272.97 124.778)">
            <path id="shoe-2" data-name="shoe" d="M5.025,5.616A2.246,2.246,0,0,0,2.144,7.132L0,14.691a72.264,72.264,0,0,0,1.012,8.874H64.37s2.47-8.17-2.851-8.822-8.84-1.176-8.84-1.176L23.231.43a1.123,1.123,0,0,0-1.5.6L19.842,5.623s-4.926,2.3-8.005,2.3Z" transform="translate(1.123 21.4)" fill="#e4e4e4"/>
          </g>
          <rect id="Base-2" data-name="Base" width="59.537" height="7.869" rx="3.934" transform="translate(275.217 169.742)" fill="#2f3676"/>
          <path id="Seat" d="M10,0H132.663a10,10,0,0,1,10,10V66.323a0,0,0,0,1,0,0H4a4,4,0,0,1-4-4V10A10,10,0,0,1,10,0Z" transform="translate(111.21 6.745)" fill="#2f3676"/>
          <path id="Wheel_Stuff" data-name="Wheel Stuff" d="M0,0H2.464A11.236,11.236,0,0,1,13.549,9.42L38.193,159.625h-12" transform="translate(242.64 6.745)" fill="#2f3676"/>
          <ellipse id="Front_Wheel" data-name="Front Wheel" cx="20.22" cy="20.234" rx="20.22" ry="20.234" transform="translate(254.997 148.384)" fill="#191847"/>
          <g id="Wheel" transform="translate(40.44 15.738)">
            <path id="Wheel-2" data-name="Wheel" d="M85.373,170.867A84.935,84.935,0,0,1,37.64,156.276,85.675,85.675,0,0,1,6.709,118.688,85.366,85.366,0,0,1,14.58,37.667,85.63,85.63,0,0,1,52.142,6.714a85.216,85.216,0,0,1,80.964,7.877,85.674,85.674,0,0,1,30.931,37.588,85.367,85.367,0,0,1-7.871,81.021A85.631,85.631,0,0,1,118.6,164.153,84.789,84.789,0,0,1,85.373,170.867Zm0-155.128a69.289,69.289,0,0,0-38.94,11.9A69.891,69.891,0,0,0,21.2,58.3a69.642,69.642,0,0,0,6.421,66.1,69.855,69.855,0,0,0,30.642,25.251,69.519,69.519,0,0,0,66.05-6.426,69.891,69.891,0,0,0,25.233-30.664,69.641,69.641,0,0,0-6.421-66.1,69.855,69.855,0,0,0-30.642-25.251A69.171,69.171,0,0,0,85.373,15.738Z" transform="translate(0 0)" fill="#191847"/>
            <rect id="Wheel_Stuff-2" data-name="Wheel Stuff" width="8.987" height="148.384" transform="translate(80.88 11.241)" fill="#191847"/>
            <rect id="Wheel_Stuff-3" data-name="Wheel Stuff" width="9.042" height="148.335" rx="2" transform="translate(134.621 29.792) rotate(45)" fill="#191847"/>
            <rect id="Wheel_Stuff-4" data-name="Wheel Stuff" width="8.993" height="148.28" rx="2" transform="translate(159.513 80.937) rotate(90)" fill="#191847"/>
            <rect id="Wheel_Stuff-5" data-name="Wheel Stuff" width="8.938" height="148.329" rx="2" transform="translate(140.976 134.715) rotate(135)" fill="#191847"/>
          </g>
        </g>
        <g id="Body_Long_Sleeve_1" data-name="Body/Long Sleeve 1" transform="translate(22.467 92.178)">
          <path id="Skin-2" data-name="Skin" d="M1.378,143.881c-1.254-.774-2.627-3.687.691-5.963,8.266-5.672,20.177-15.6,21.786-18.864,3.292-6.683,32.1-92.694,32.1-92.694l24.6.093s-40.459,91.111-42.192,95.408c-2.6,6.446,2.9,16.263,5.253,21.539-3.707,1.66-5.43-.459-7.316-2.578-2.01-2.26-4.207-4.519-9.193-2.2-6.381,2.971-11.657,7.686-17.945,7.686A14.585,14.585,0,0,1,1.378,143.881Zm193.9-127.794,44.353-6.054Q252.938,2.626,264.116,0c2.1-.061,5.433.7.463,4.848s-10.012,8.732-9.126,10.945,5.507,1.389,6.273,4.792q.766,3.4-22.5,1.106L203.234,35.973Z" transform="translate(20.403 57.33)" fill="#997659"/>
          <path id="Clothes_Back" data-name="Clothes Back" d="M0,.4,19.3,0c8.468,42.366,36.57,67.135,93.4,52.946l12.476,54.421C71.918,119.046,22.8,101.6,8,44.023,4.174,29.118.818,13.552,0,.4Z" transform="matrix(0.996, 0.087, -0.087, 0.996, 143.765, 5.221)" fill="#afb9c5"/>
          <path id="Clothes" d="M0,165.246Q20.057,58.45,84.67,0h1.911L86.6.018l29.181,6.688c0,50.225,15.988,82.269,24.188,119.2H61.156c-1.11,12.759-1.792,25.876-2.147,39.344Z" transform="translate(47.631)" fill="#c5cfd6"/>
          <path id="Shade-2" data-name="Shade" d="M16.017,73.518H0C2.406,45.867,6.648,21.819,12.968,0,12.1,14.564,11.811,27.728,12.1,39.125c.369,14.508,1.686,26.079,3.917,34.392Z" transform="translate(108.788 52.383)" fill="rgba(0,0,0,0.1)"/>
        </g>
      </g>
      <g id="Head-4" data-name="Head" transform="translate(579.233)">
        <g id="Head-5" data-name="Head" transform="translate(62.017 34.875)">
          <path id="Head-6" data-name="Head" d="M0,0,9.295,43.324C4.112,49.408.6,56.866,1.189,65.221,2.879,89.3,36.392,84,42.911,71.849s5.745-42.974-2.68-45.145c-3.36-.866-10.518,1.255-17.8,5.647L27,0Z" transform="translate(47.25 82.125) rotate(180)" fill="#b28b67"/>
        </g>
        <path id="Hair" d="M22.732,8.043c-1.814,5.478-2.5,21.248-2.672,25.907a6.821,6.821,0,0,1-.81.048A6.75,6.75,0,0,1,14.533,22.42c-1.562-2.2-3.312-4.508-5.318-6.884C1.68,20.057-3.911,33.291,3.456,46c2.036,6.228,6.646,9.555,12.09,11.1a19.584,19.584,0,0,0,12.853.948c7.576-.65,14.34-2.961,16.258-4.332,0-7.172-1.39-9.3-13.26-9.113-2.917-1.54-5.159-4.192-7.494-7.67.017-.232,1.586-21.6,8.2-21.6,6.651,0,12.295,4.223,15.214,4.223,2.127,0,1.652-2.663.242-4.636C46.4,13.3,40.731,11.729,40.731,9.2c0-1.426,1.428-1.424,2.67-1.421.958,0,1.806,0,1.806-.649,0-2.477.788-7.134-3.512-7.134C37.344,0,24.869,1.586,22.732,8.043Z" transform="translate(109.392 91.373) rotate(180)" fill="#191847"/>
      </g>
      <g id="Bottom-2" data-name="Bottom" transform="translate(591.367 212)">
        <path id="Leg-4" data-name="Leg" d="M78.805,0,36.533,138.467,16.056,256.223H0L21.638,0Z" transform="translate(41.761 0)" fill="#997659"/>
        <path id="Leg-5" data-name="Leg" d="M63.688,0c-2.871,76.026.508,115.241,1.15,122.148s9.442,51.694,30.274,136.394L78,252.655C45.081,174.973,33.862,134.6,30.086,124.4S16.282,72.732,0,0Z" transform="translate(72.001 0)" fill="#b28b67"/>
        <g id="Left_Shoe-2" data-name="Left Shoe" transform="translate(104.593 245.738)">
          <path id="shoe-3" data-name="shoe" d="M59.918,5.623A2.246,2.246,0,0,1,62.8,7.141l2.144,7.568a72.439,72.439,0,0,1-1.012,8.885H.572s-2.47-8.181,2.851-8.833,8.84-1.178,8.84-1.178L41.712.43a1.123,1.123,0,0,1,1.5.6l1.893,4.6s4.926,2.3,8.005,2.3Z" transform="translate(0 -0.332)" fill="#e4e4e4"/>
        </g>
        <g id="Right_Shoe-2" data-name="Right Shoe" transform="translate(0 245.738)">
          <path id="shoe-4" data-name="shoe" d="M59.918,5.623A2.246,2.246,0,0,1,62.8,7.141l2.144,7.568a72.439,72.439,0,0,1-1.012,8.885H.572s-2.47-8.181,2.851-8.833,8.84-1.178,8.84-1.178L41.712.43a1.123,1.123,0,0,1,1.5.6l1.893,4.6s4.926,2.3,8.005,2.3Z" transform="translate(0 -0.332)" fill="#e4e4e4"/>
        </g>
        <path id="Bottom-3" data-name="Bottom" d="M72.871,0,54.9,70.547H0L8.185,0Z" transform="translate(53.312 0)" fill="#69a1ac"/>
        <path id="Bottom-4" data-name="Bottom" d="M68.429,0C77.3,26.642,71.8,70.547,71.8,70.547H15.778L.373,0Z" transform="translate(67.864)" fill="#89c5cc"/>
      </g>
      <g id="Body-2" data-name="Body" transform="translate(504.589 110.783) rotate(-8)">
        <path id="Skin-3" data-name="Skin" d="M1.38,2.428C.125,3.2-1.25,6.111,2.072,8.385,10.35,14.051,22.278,23.967,23.89,27.232c3.3,6.676,14.523,71.746,14.523,71.746l23.509-.093S40.149,28.719,38.413,24.427c-2.6-6.44,2.906-16.248,5.261-21.519-3.713-1.659-5.438.459-7.326,2.576C34.335,7.742,32.135,10,27.141,7.679,20.751,4.71,15.467,0,9.169,0A14.632,14.632,0,0,0,1.38,2.428Zm201.041,63.14-33.139,19.5,10.585,18.282L211.736,72.32q13.909-5.922,22.792-13.078c1.332-1.6,2.782-4.676-3.484-3.3s-12.921,2.54-14.1.506,2.292-5.152.115-7.815a.824.824,0,0,0-.668-.318Q213.4,48.312,202.421,65.568Z" transform="translate(274.123 203.438) rotate(180)" fill="#b28b67"/>
        <path id="Coat_Back" data-name="Coat Back" d="M0,144.107l9.546,2.507Q40.033,86.4,106.858,40.848L78.775,0C32.969,44.778,2.975,92.487,0,144.107Z" transform="matrix(-0.996, 0.087, -0.087, -0.996, 181.459, 149.547)" fill="#191847"/>
        <path id="Shirt" d="M86.625,128.021H0S30.1,54.957,30.1,3.886L56.234,0C76.77,32.969,82.57,73.561,86.625,128.021Z" transform="translate(124.681 0)" fill="#dde3e9"/>
        <path id="Coat_Front" data-name="Coat Front" d="M0,0C9.474,106.689,69.192,165.08,69.192,165.08l.02-.018.01.018h1.706c3.062-.105,9.326-.379,9.326-.379l6.314-18.013c1-32.941,11.7-132.77,11.7-132.77h-56.7Q41.714,7.053,42.222,0Z" transform="translate(250.681 165.08) rotate(180)" fill="#2f3676"/>
        <path id="Shade-3" data-name="Shade" d="M15.866,0H.07A286.412,286.412,0,0,0,4.344,55.586,301.472,301.472,0,0,1,8.155,24.5C10.213,13.368,12.807,5.127,15.865,0Z" transform="translate(209.172 151.604) rotate(180)" fill="rgba(0,0,0,0.1)"/>
        <path id="Light-3" data-name="Light" d="M28,12.994,0,0V12.994Z" transform="translate(168.556 103.798)" fill="rgba(255,255,255,0.2)"/>
      </g>
    </g>
  </g>
</svg>
