<svg id="humaaan-4" xmlns="http://www.w3.org/2000/svg" width="324.926" height="461.51" viewBox="0 0 324.926 461.51" transform="scale(-1,1)">
  <g id="Head_Front" data-name="Head/Front" transform="translate(88.813)">
    <g id="Head" transform="translate(58.487 33.584)">
      <path id="Head-2" data-name="Head" d="M0,79.085l8.949-41.72C3.958,31.505.58,24.324,1.144,16.278,2.771-6.906,35.036-1.806,41.312,9.9s5.531,41.383-2.58,43.474c-3.235.834-10.126-1.209-17.14-5.437l4.4,31.153Z" transform="translate(0 0)" fill="#b28b67"/>
    </g>
    <path id="hair" d="M78.822,12.091A5.624,5.624,0,0,0,74.885,8.1a5.185,5.185,0,0,0-1.449-.144c-.175.007-.224.057-.305-.065a1.6,1.6,0,0,1-.087-.418,7.89,7.89,0,0,0-.294-.976,7.968,7.968,0,0,0-1.921-2.857A9.67,9.67,0,0,0,65.02.888a8.467,8.467,0,0,0-3.492.476,13.826,13.826,0,0,0-1.7.725c-.165.083-.7.489-.868.463-.183-.029-.552-.485-.7-.6A10.264,10.264,0,0,0,51.849,0C49.259.02,46.764.149,44.6,1.729A14.492,14.492,0,0,0,43.3,2.815c-.218.2-.43.414-.632.633q-.183.2-.354.407c-.194.236-.163.313-.434.149a5.385,5.385,0,0,0-3.459-.778,7.738,7.738,0,0,0-2.088.59c-.227.1-.751.484-.993.488s-.757-.355-1-.446A8.23,8.23,0,0,0,30.16,3.47a10.773,10.773,0,0,0-4.091,1.609,5.5,5.5,0,0,0-1.516,1.379c-.178.246-.339.507-.541.735-.118.134-.353.271-.416.44a8.983,8.983,0,0,0-1.734-.766,4.27,4.27,0,0,0-2.44.093,9.7,9.7,0,0,0-3.847,2.734,10.926,10.926,0,0,0-1.424,1.913q-.291.493-.533,1.012a3.765,3.765,0,0,1-.234.527c-.133.194-.223.2-.465.283a7.506,7.506,0,0,0-3.2,2.141,7.371,7.371,0,0,0-1.655,3.51A1.788,1.788,0,0,1,8,19.512c-.061.057-.308.032-.4.043a8.432,8.432,0,0,0-.961.169,7.928,7.928,0,0,0-1.689.607A8.827,8.827,0,0,0,.623,25.5a10.485,10.485,0,0,0,.164,7.177,7.012,7.012,0,0,0,.533,1.051c.127.205.169.206.086.421-.092.239-.261.472-.37.706a10.133,10.133,0,0,0-.765,2.4A11.256,11.256,0,0,0,.139,41.4a5.989,5.989,0,0,0,.64,1.82,5.221,5.221,0,0,0,.561.814c.11.131.227.257.35.377a2.334,2.334,0,0,1,.221.205c.145.187.176.033.1.308a12.282,12.282,0,0,1-.488,1.135c-.15.385-.285.774-.409,1.168a17.236,17.236,0,0,0-.6,2.435,7.646,7.646,0,0,0,.539,4.729A4.73,4.73,0,0,0,2.4,55.983a4.965,4.965,0,0,0,.879.534c.159.076.363.108.436.262s-.038.495-.064.68a11.342,11.342,0,0,0,.133,4.885,6.749,6.749,0,0,0,2.675,3.591,8.319,8.319,0,0,0,8.318.236,8.733,8.733,0,0,0,1.857-1.276c1.424,1.918,4.356,1.857,6.438,1.311a9.248,9.248,0,0,0,5.874-4.855c1.64,2,5.081,1.349,6.218-.817a5.183,5.183,0,0,0,.525-1.706c.043-.311.015-.625.048-.933a4.821,4.821,0,0,1,.454-1.155,6.377,6.377,0,0,0,.484-2.3,11.691,11.691,0,0,0-.088-1.236,4.249,4.249,0,0,1,.126-1.086,4.964,4.964,0,0,1-2.1-.263,4.151,4.151,0,0,1-1.625-1.143,9.487,9.487,0,0,1-2.045-3.824c-.924-3.028-.545-6.661,2.5-8.323,1.419-.774,5.668-.772,7.358-.389,1.777.4,3.79,4.323,3.89,4.692.061.228.03.51.24.662.46.334,1.22-.246,1.559-.532a6.151,6.151,0,0,0,1.366-1.817,22.488,22.488,0,0,0,1.874-4.6c.346-1.225.568-2.488,1.02-3.682a5.632,5.632,0,0,1,2.264-2.922A19.936,19.936,0,0,1,56.9,28.4a9.669,9.669,0,0,0,3.6-1.98,4.981,4.981,0,0,0,.618-.689c.142-.2.281-.576.5-.7.335-.2.824.312,1.114.5a12.88,12.88,0,0,1,3.586,3.56,22.153,22.153,0,0,1,2.38,4.239c.473,1.14.769,2.6,1.6,3.535.372.417,3.134.67,4.029.305a5.091,5.091,0,0,0,2.2-1.9,2.956,2.956,0,0,0,.25-1.937c-.077-.391-.235-.756-.321-1.139a3.553,3.553,0,0,0-.3-.922,2.274,2.274,0,0,0-1.418-1.13,6.659,6.659,0,0,0,1.531-2.077,8.916,8.916,0,0,0,.793-2.706,3.286,3.286,0,0,0-.439-2.108,5.55,5.55,0,0,0-1.8-1.494,11.707,11.707,0,0,0,2.505-2.729A8.521,8.521,0,0,0,78.822,12.091Z" transform="translate(32.493 15.167)" fill="#191847"/>
  </g>
  <g id="Bottom_Skinny_Jeans_1" data-name="Bottom/Skinny Jeans 1" transform="translate(0 202.588)">
    <path id="Leg" d="M0,0,52.077,137.832l36.5,101.59h20.813L59.216,0Z" transform="translate(138.635)" fill="#1f28cf"/>
    <path id="Leg-2" data-name="Leg" d="M83.524,0c-.566,47.293-.157,110.965-1.476,113.913S0,181.091,0,181.091l10.728,18.247s95.844-61.823,100.744-70.06S140.99,45.244,153.8,0Z" transform="translate(42.24)" fill="#2b44ff"/>
    <g id="Left_Shoe" data-name="Left Shoe" transform="translate(56.554 165.515) rotate(50)">
      <path id="Shoe" d="M0,21,1,0H22C36.936,10.5,61,17,61,17v4H23L10,19v2Z" transform="translate(0 19)" fill="#191847"/>
    </g>
    <g id="Right_Shoe" data-name="Right Shoe" transform="translate(225.282 215.588)">
      <path id="Shoe-2" data-name="Shoe" d="M0,22.75,1.083,0H23.828c16.177,11.375,42.24,18.417,42.24,18.417V22.75H24.911l-14.08-2.167V22.75Z" transform="translate(0 20.584)" fill="#191847"/>
    </g>
  </g>
  <g id="Body_Long_Sleeve_1" data-name="Body/Long Sleeve 1" transform="translate(23.828 88.835)">
    <path id="Skin" d="M1.329,138.664c-1.209-.746-2.532-3.553.666-5.747,7.97-5.466,19.454-15.032,21.005-18.18C26.174,108.3,53.945,25.4,53.945,25.4l23.717.09s-39.01,87.806-40.68,91.948c-2.506,6.212,2.8,15.673,5.065,20.758-3.575,1.6-5.236-.443-7.053-2.484-1.938-2.178-4.056-4.355-8.864-2.117-6.152,2.863-11.239,7.407-17.3,7.407A14.066,14.066,0,0,1,1.329,138.664ZM188.28,15.5l42.763-5.835A93.229,93.229,0,0,1,254.653,0c2.022-.059,5.238.677.446,4.672s-9.653,8.415-8.8,10.548,5.31,1.339,6.048,4.619q.738,3.279-21.7,1.066l-34.7,13.76Z" transform="translate(19.672 55.251)" fill="#997659"/>
    <path id="Clothes_Back" data-name="Clothes Back" d="M0,.386,18.607,0c8.163,40.829,35.257,64.7,90.046,51.023L120.68,103.47c-51.343,11.256-98.7-5.555-112.965-61.043C4.023,28.062.789,13.06,0,.386Z" transform="matrix(0.996, 0.087, -0.087, 0.996, 138.614, 5.032)" fill="#afb9c5"/>
    <path id="Clothes" d="M0,159.253Q19.339,56.33,81.637,0h1.842l.015.017,28.136,6.445c0,48.4,15.415,79.286,23.322,114.873H58.965c-1.07,12.3-1.728,24.937-2.07,37.918Z" transform="translate(45.925)" fill="#c5cfd6"/>
    <path id="Shade" d="M15.444,70.852H0C2.32,44.2,6.41,21.028,12.5,0c-.834,14.036-1.116,26.722-.837,37.706.355,13.982,1.626,25.133,3.776,33.145Z" transform="translate(104.89 50.484)" fill="rgba(0,0,0,0.1)"/>
  </g>
</svg>
