<svg xmlns="http://www.w3.org/2000/svg" xmlns:xlink="http://www.w3.org/1999/xlink" width="298.3416" height="271.4436" viewBox="0 0 248.618 226.203">
  <defs>
    <clipPath id="clip-path">
      <path id="Mask" d="M153.949,283.122c52.9,0,79.77-36.366,82.585-74.929,2.8-9.948,0-54.524,0-65.365,0-63.7-31.8-83.37-95.553-83.37-.255,0-14.5-.016-14.983,0C62.173,61.5-20.671,255.83,35.277,283.122c33.551,16.366,39.859-94.364,41.475-82.023C78.6,262.97,122.7,283.122,153.949,283.122Z" transform="translate(-12.659 -83.855)" fill="none"/>
    </clipPath>
    <clipPath id="clip-path-2">
      <path id="Path" d="M40.091,9.355c.342-.985,2.673-4.036-1.479-6.942-.746-.522-1.979,0-3.047-.331-.8-.248-1.074-1.368-2-1.563-.956-.2-2,.716-3.077.635C29.832,1.1,28.811.073,28.122.018c-1.23-.1-2.347,1.061-3.548,1.135-.7.043-1.5-1.076-2.2-1.135-1.682-.144-3.214.639-4.7.877-1.366.219-2,3.016-3.007,3.677C11.517,6.646,9.043,7.226,6.481,9.355c-3.046,2.531-3.629,4.414-4.891,6.1S-.451,23.083.285,26.891c.434,2.246,1.565,8.381,4.092,10.756,3.459,3.251,10.5,4.214,11.12,3.78,2.893-2.009,9.378-13.119,13.977-17.046C32.857,21.494,37.972,15.455,40.091,9.355Z" transform="translate(0 0)" fill="#ff9b21"/>
    </clipPath>
  </defs>
  <g id="Human" transform="translate(32.882 26.404)">
    <ellipse id="Background" cx="79.912" cy="79.842" rx="79.912" ry="79.842" transform="translate(26.901 37.945)" fill="#aaddc7"/>
    <path id="Mask-2" data-name="Mask" d="M106.57,197.6a79.936,79.936,0,0,0,76.938-58.188c1.938-6.886,31.985-29.591,31.985-37.1C215.493,58.223,150.7,0,106.57,0S-29.518,178.633,9.367,197.6c23.225,11.329,38.46-25.54,41.558-22.537A79.685,79.685,0,0,0,106.57,197.6Z" transform="translate(0.243 0.027)" fill="none"/>
    <g id="Human-2" data-name="Human" transform="translate(-37 -2)" clip-path="url(#clip-path)">
      <g id="A_Human_Standing" data-name="A Human/Standing" transform="translate(37 -12)">
        <g id="Head_Front" data-name="Head/Front" transform="translate(77)">
          <g id="Head" transform="translate(50.58 29.068)">
            <path id="Head-2" data-name="Head" d="M0,68,7.672,32.127C3.394,27.089.5,20.914.981,14,2.376-5.938,30.038-1.553,35.419,8.508s4.742,35.583-2.212,37.381c-2.774.717-8.682-1.039-14.695-4.675L22.286,68Z" transform="translate(0.42 -0.068)" fill="#b28b67"/>
          </g>
          <path id="Hair" d="M18.926,42.244c-1.51-4.566-2.085-17.71-2.225-21.594a5.624,5.624,0,0,0-6.294,5.586A5.612,5.612,0,0,0,12.1,30.261C10.8,32.1,9.343,34.018,7.673,36,1.4,32.231-3.256,21.2,2.877,10.6c1.7-5.191,5.533-7.964,10.066-9.251a16.289,16.289,0,0,1,10.7-.79C29.952,1.1,35.584,3.03,37.181,4.174c0,5.977-1.157,7.751-11.04,7.6-2.428,1.284-4.3,3.494-6.24,6.393.014.193,1.321,18,6.829,18,5.538,0,10.237-3.52,12.667-3.52,1.771,0,1.376,2.219.2,3.864-.969,1.358-5.686,2.666-5.686,4.771,0,1.188,1.189,1.187,2.223,1.184.8,0,1.5,0,1.5.541,0,2.064.656,5.946-2.924,5.946C31.092,48.948,20.706,47.626,18.926,42.244Z" transform="translate(50.476 27.211)" fill="#191847"/>
        </g>
        <g id="Bottom_Skinny_Jeans_1" data-name="Bottom/Skinny Jeans 1" transform="translate(0 175)">
          <path id="Skin" d="M53.513,129.547c-.937-11.827-2.68-52.825-.937-71.9.524-5.737,1.078-11.277,1.635-16.451-16.777,30.07-43.424,72.958-43.424,72.958L0,109.221S12.707,67.313,20.838,50.048C30.12,30.341,38.824,13.465,42.486,7.521,47.325-.331,55.174.711,60.7,4.6c6.725-9.131,23.535-3.086,23.525,4.473C84.2,28.917,66.11,123.137,65.166,129.084c-.514,3.237-3.746,5.289-6.679,5.289C56.029,134.374,53.781,132.935,53.513,129.547Z" transform="translate(178.038 12.369)" fill="#b28b67"/>
          <path id="Leg_Back" data-name="Leg Back" d="M.036,104.857,4.8,9.687C8.247-6.768,37.494.88,37.485,9.7c-.02,20.022-12.014,89.183-12.02,95.148Z" transform="translate(214.639 7.529) rotate(20)" fill="#1f28cf"/>
          <path id="Leg_Front" data-name="Leg Front" d="M158.3,28.061c0,24.887-10.9,83.387-10.9,88.867l-26.4-.891s6.921-76.293,5.838-76.81c-1.626-.775-66.64,9.008-86.139,9.747C12.576,50.039.944,32.77,0,0H54.465s69.859,8.348,91.828,11.612C155.7,13.01,158.3,21.205,158.3,28.061Z" transform="translate(104.907 0.235)" fill="#2b44ff"/>
          <g id="Left_Shoe" data-name="Left Shoe" transform="translate(179.901 95.119) rotate(14)">
            <path id="Seat" d="M22.651,40H16A16,16,0,0,1,0,24V16A16,16,0,0,1,16,0h6.651a16,16,0,0,1,16,16v8a16,16,0,0,1-16,16ZM11.363,9.032a4,4,0,0,0-4,4V26.968a4.005,4.005,0,0,0,4,4H27.289a4,4,0,0,0,4-4V13.032a4,4,0,0,0-4-4Z" transform="translate(11.306 0)" fill="#c5cfd6"/>
          </g>
          <g id="Right_Shoe" data-name="Right Shoe" transform="translate(228 104)">
            <path id="shoe" d="M4.19,4.74A1.873,1.873,0,0,0,1.788,6L0,12.31a60.3,60.3,0,0,0,.844,7.4h52.83S55.733,12.9,51.3,12.353s-7.371-.981-7.371-.981L19.37.413a.936.936,0,0,0-1.247.5L16.545,4.745S12.437,6.664,9.869,6.664Z" transform="translate(0.937 17.795)" fill="#e4e4e4"/>
          </g>
          <rect id="Base" width="50" height="6" rx="3" transform="translate(229 142)" fill="#2f3676"/>
          <path id="Seat-2" data-name="Seat" d="M10,0h99a10,10,0,0,1,10,10V55a0,0,0,0,1,0,0H4a4,4,0,0,1-4-4V10A10,10,0,0,1,10,0Z" transform="translate(93 6)" fill="#2f3676"/>
          <path id="Wheel_Stuff" data-name="Wheel Stuff" d="M0,0H2.055A9.37,9.37,0,0,1,11.3,7.858L31.847,133.15H21.838" transform="translate(202.32 5.626)" fill="#2f3676"/>
          <ellipse id="Front_Wheel" data-name="Front Wheel" cx="16.5" cy="17" rx="16.5" ry="17" transform="translate(213 124)" fill="#191847"/>
          <g id="Wheel" transform="translate(33.72 13.127)">
            <path id="Wheel-2" data-name="Wheel" d="M71,143a70.128,70.128,0,0,1-27.636-5.619,70.851,70.851,0,0,1-12.06-6.592,71.734,71.734,0,0,1,0-118.578,70.85,70.85,0,0,1,12.06-6.592,70.775,70.775,0,0,1,55.273,0,70.853,70.853,0,0,1,12.06,6.592,71.734,71.734,0,0,1,0,118.578,70.852,70.852,0,0,1-12.06,6.592A70.131,70.131,0,0,1,71,143ZM71,13.171a57.211,57.211,0,0,0-22.545,4.584,57.8,57.8,0,0,0-9.839,5.378,58.52,58.52,0,0,0,0,96.734,57.8,57.8,0,0,0,9.839,5.378,57.738,57.738,0,0,0,45.091,0,57.8,57.8,0,0,0,9.839-5.378,58.52,58.52,0,0,0,0-96.734,57.8,57.8,0,0,0-9.839-5.378A57.213,57.213,0,0,0,71,13.171Z" transform="translate(0.28 -0.127)" fill="#191847"/>
            <rect id="Wheel_Stuff-2" data-name="Wheel Stuff" width="8" height="123" transform="translate(67.28 9.873)" fill="#191847"/>
            <rect id="Wheel_Stuff-3" data-name="Wheel Stuff" width="7.564" height="123.711" rx="2" transform="translate(112.251 24.851) rotate(45)" fill="#191847"/>
            <rect id="Wheel_Stuff-4" data-name="Wheel Stuff" width="7" height="124" rx="2" transform="translate(133.28 67.873) rotate(90)" fill="#191847"/>
            <rect id="Wheel_Stuff-5" data-name="Wheel Stuff" width="7.431" height="123.703" rx="2" transform="translate(117.549 112.372) rotate(135)" fill="#191847"/>
          </g>
        </g>
        <g id="Body_Long_Sleeve_1" data-name="Body/Long Sleeve 1" transform="translate(52.999 77)">
          <path id="Skin-2" data-name="Skin" d="M1.149,81.374C.1,80.729-1.041,78.3,1.725,76.4c6.892-4.73,16.824-13.01,18.166-15.736C22.635,55.09,31.983.758,31.983.758L51.556.835S33.428,59.421,31.983,63.006c-2.167,5.377,2.419,13.567,4.38,17.968-3.091,1.385-4.528-.383-6.1-2.151-1.676-1.884-3.508-3.769-7.665-1.832C17.277,79.469,12.878,83.4,7.634,83.4A12.157,12.157,0,0,1,1.149,81.374ZM169.682,28.627,140.095,16.345,146.7,0l29.878,21.964a80.353,80.353,0,0,1,20.31,8.171c1.285,1.171,2.837,3.544-2.489,3.134s-10.947-.6-11.682,1.217,2.489,3.993,1,6.447a.706.706,0,0,1-.648.35Q180.445,41.283,169.682,28.627Z" transform="translate(0 86.465)" fill="#b28b67"/>
          <path id="Coat_Back" data-name="Coat Back" d="M0,2.092,7.948,0C40.15,23.271,56.8,71.931,95.8,95.068L87.924,106.8C23.574,104.48,2.488,45.194,0,2.092Z" transform="matrix(0.996, 0.087, -0.087, 0.996, 87.791, 2.916)" fill="#e87613"/>
          <path id="Shirt" d="M0,106.9H71.666c3.275,0,2.658-4.734,2.184-7.122C68.387,72.2,47.059,42.488,47.059,3.245L26.388,0C9.289,27.529,3.377,61.422,0,106.9Z" transform="translate(52.301 0)" fill="#dde3e9"/>
          <path id="Coat_Front" data-name="Coat Front" d="M.1,149.572C-2.525,64.779,49.806,10.954,56.909,4.05c.139-.254.279-.507.417-.756l.355.02.022-.02.026.023L66.1,3.8S93.954,98.286,81.465,129.881H24.82a180.02,180.02,0,0,1-9.355,19.691Z" transform="translate(19.422 -3.294)" fill="#ff9b21"/>
          <path id="Shade" d="M21.171,34.268H0C3.883,24.933,8.166,13.4,12.73,0c1.9,16.518,4.74,28.047,8.441,34.267Z" transform="translate(44.243 92.318)" fill="rgba(0,0,0,0.1)"/>
        </g>
      </g>
      <g id="Human-3" data-name="Human" transform="translate(-7.659 -36.648)">
        <g id="Head_Front-2" data-name="Head/Front" transform="translate(64.879)">
          <g id="Head-3" data-name="Head" transform="translate(42.725 24.506)">
            <path id="Head-4" data-name="Head" d="M0,57.707,6.537,27.264C2.892,22.989.424,17.749.836,11.878,2.024-5.04,25.595-1.318,30.179,7.22s4.04,30.2-1.885,31.723c-2.363.609-7.4-.882-12.521-3.968l3.216,22.732Z" transform="translate(0 0)" fill="#784931"/>
          </g>
          <g id="Turban" transform="translate(32.24 17.563)">
            <path id="Path-2" data-name="Path" d="M40.091,9.355c.342-.985,2.673-4.036-1.479-6.942-.746-.522-1.979,0-3.047-.331-.8-.248-1.074-1.368-2-1.563-.956-.2-2,.716-3.077.635C29.832,1.1,28.811.073,28.122.018c-1.23-.1-2.347,1.061-3.548,1.135-.7.043-1.5-1.076-2.2-1.135-1.682-.144-3.214.639-4.7.877-1.366.219-2,3.016-3.007,3.677C11.517,6.646,9.043,7.226,6.481,9.355c-3.046,2.531-3.629,4.414-4.891,6.1S-.451,23.083.285,26.891c.434,2.246,1.565,8.381,4.092,10.756,3.459,3.251,10.5,4.214,11.12,3.78,2.893-2.009,9.378-13.119,13.977-17.046C32.857,21.494,37.972,15.455,40.091,9.355Z" transform="translate(0 0)" fill="#ff9b21"/>
            <g id="Turban-2" data-name="Turban" transform="translate(0 0)" clip-path="url(#clip-path-2)">
              <path id="Shade-2" data-name="Shade" d="M8.064,17.4C9.968,10.656,11.82.245,11.82.245L14.158,0s-3.871,16.316-6,22.85c-1.44,4.416-2.613,8.157-3.622,11.219,2.077-4.6,4.748-10.494,7.164-16.543C14.3,11.018,17.228.858,17.228.858H19.58s-5.556,15.822-8.359,22.1c-3,6.728-5.164,11.838-6.884,15.269a185.8,185.8,0,0,0,12.04-20.364C19.063,12.6,22.7,1.734,22.7,1.734l2.188.936s-5.512,13.746-8.517,19.172C9.845,33.632,3.61,40.746,1.431,42.765c-.377.349-.5.431-.413.252a.086.086,0,0,1-.066-.054,5.721,5.721,0,0,1-.459.609c-.174.2-.3.294-.379.294C-.825,43.867,4.247,30.923,8.064,17.4Z" transform="translate(12.247 -1.167)" fill="rgba(0,0,0,0.2)"/>
            </g>
          </g>
        </g>
        <g id="Bottom_Skinny_Jeans_1-2" data-name="Bottom/Skinny Jeans 1" transform="translate(0 147.826)">
          <path id="Leg" d="M82.277.034C67.159,12.361,72.957,120.5,71.948,121.859c-.673.907-71.892,15.416-71.892,15.416l2.053,8.37s83.313-4.1,88.167-10.286c6.949-8.854,17.144-99.057,17.144-99.057Z" transform="matrix(0.574, -0.819, 0.819, 0.574, 45.07, 67.378)" fill="#b28b67"/>
          <path id="Pant" d="M.055,133.99l3.616,13.481c41.405,4.773,68.7-1.1,78.3-10.24S99.16,38.443,99.16,38.443L72.263.03C36.275,27.182,57.77,116.124,56.851,118.158S34.1,121.793.055,133.99Z" transform="matrix(0.574, -0.819, 0.819, 0.574, 49.876, 59.225)" fill="#2f3676"/>
          <g id="Right_Show" data-name="Right Show" transform="translate(159.479 124.944) rotate(20)">
            <path id="shoe-2" data-name="shoe" d="M4.474,5.033A2,2,0,0,0,1.908,6.381L0,13.106A64.242,64.242,0,0,0,.9,21H57.3s2.2-7.268-2.538-7.848-7.87-1.047-7.87-1.047L20.68.419a1,1,0,0,0-1.332.532L17.663,5.039s-4.385,2.046-7.127,2.046Z" transform="translate(1 19)" fill="#e4e4e4"/>
          </g>
          <path id="Leg-2" data-name="Leg" d="M81.181,0,40.239,98.2,0,181.226H9.494L113.363,0Z" transform="translate(21.676)" fill="#997659"/>
          <g id="Left_Shot" data-name="Left Shot" transform="translate(18.989 157.312)">
            <path id="shoe-3" data-name="shoe" d="M3.539,4.048A1.583,1.583,0,0,0,1.51,5.114L0,10.43A50.741,50.741,0,0,0,.713,16.67H45.339s1.739-5.746-2.008-6.2S37.1,9.639,37.1,9.639L16.362.4a.791.791,0,0,0-1.054.421L13.975,4.053S10.506,5.67,8.337,5.67Z" transform="translate(0.791 14.95)" fill="#e4e4e4"/>
          </g>
          <path id="Pant-2" data-name="Pant" d="M0,163.979l21.1,3.953C37.406,143.972,105.668,45.733,113.152,0H66.189C41.2,33.06,15.548,139.623,0,163.979Z" transform="translate(25.31 0)" fill="#5c63ab"/>
        </g>
        <g id="Body_Long_Sleeve_1-2" data-name="Body/Long Sleeve 1" transform="translate(17.407 64.822)">
          <path id="Skin-3" data-name="Skin" d="M25.152,91.911c-1.079-1.813-2.305-3.625-6.031-2.7-6.648,1.65-12.286,5.883-18.485.174-.762-.7-1.32-2.9,1.279-4.021,6.474-2.8,16.039-8.053,17.59-10.091q3.173-4.17,19.666-47.6l16.214,3.214Q30.927,76.422,29.152,79.155c-2.662,4.1-.178,11.61.739,15.566a5,5,0,0,1-1.129.141C26.811,94.862,26.03,93.387,25.152,91.911ZM155.077,24.2l28.669-12.579A67.933,67.933,0,0,1,198.3.223c1.4-.445,3.788-.579,1.238,3.141s-5.063,7.748-4.045,9.051,3.969-.135,5.135,1.985q1.166,2.121-14.921,5.073L164.231,35.92Z" transform="translate(1.582 37.154)" fill="#915b3c"/>
          <path id="Coat_Back-2" data-name="Coat Back" d="M0,1.764,6.713,0c16.1,13.089,25.186,47.125,35.48,50.835,9.732,3.508,22.625-1.839,37.892-8.87l5.769,10.352C72.888,69.049,43.524,84.8,30.5,78.412,9.69,68.206,1.4,25.973,0,1.764Z" transform="matrix(0.996, 0.087, -0.087, 0.996, 101.187, 2.458)" fill="#1f28cf"/>
          <path id="Shirt-2" data-name="Shirt" d="M0,90.119H60.537c2.766,0,2.245-3.991,1.845-6-4.615-23.241-22.63-48.295-22.63-81.378L22.29,0C7.847,23.208,2.852,51.782,0,90.119Z" transform="translate(71.209)" fill="#dde3e9"/>
          <path id="Coat_Front-2" data-name="Coat Front" d="M0,112.141Q12.26,36.171,71.009,0h6.914s23.514,80.084,12.965,106.719H36.4a198.6,198.6,0,0,1,7.413-40.132Q25.3,99.948,12.689,114.624Z" transform="translate(21.363)" fill="#2b44ff"/>
        </g>
      </g>
    </g>
  </g>
</svg>
