<svg xmlns="http://www.w3.org/2000/svg" xmlns:xlink="http://www.w3.org/1999/xlink" width="573" height="740.482" viewBox="0 0 573 740.482">
  <defs>
    <filter id="base" x="0" y="114.036" width="370.855" height="626.445" filterUnits="userSpaceOnUse">
      <feOffset dx="-10" dy="22" input="SourceAlpha"/>
      <feGaussianBlur stdDeviation="17" result="blur"/>
      <feFlood flood-opacity="0.102"/>
      <feComposite operator="in" in2="blur"/>
      <feComposite in="SourceGraphic"/>
    </filter>
    <clipPath id="clip-path">
      <rect id="Mask" width="319" height="504" transform="translate(0 0)" fill="none"/>
    </clipPath>
  </defs>
  <g id="Group_4" data-name="Group 4" transform="translate(-371 -40)">
    <g id="Plant_Left" data-name="Plant Left" transform="translate(641 222)" opacity="0.5">
      <path id="Leaf" d="M65.223,23.445c4.2-5.992,12-21.21,17.915-23.351,3.81-1.379,2.7,12.886,2.746,15.607a228.013,228.013,0,0,1-2.107,31.416C81.5,65.937,74.045,82.7,63.822,98.715c-5.26,8.242-11.431,16.584-19.977,21.727-3.934,2.368-8.667,2.765-12.552,4.805-4.524,2.375-2.06.455-4.1,5.17-2.832,6.546-3.737,14.99-5.047,21.975C16.132,184.455,1.568,353.945,4.093,386.558c.224,2.891-3.807,3.582-4.008.053C-.984,367.9,8.27,238.322,12.94,195.947s9.394-79.812,14.132-94.473C32.819,83.687,43.2,62.3,51.84,45.711A197.235,197.235,0,0,1,65.223,23.445Z" transform="translate(113 88)" fill="#69a1ac"/>
      <path id="Leaf-2" data-name="Leaf" d="M100.414,2.278C111.349-5.75,123.186,9.4,113.29,17.43c-5.47,4.438-11.189,2.859-14.409-.839-2.09,2.548-4.046,5.211-5.926,7.461-5.727,6.856-11.139,13.876-16.312,21.059C65.9,60.035,56.689,75.8,47.06,91.278c-9.5,15.276-18.929,30.63-27.541,46.292C12.223,150.841,2.5,166.452,0,181c3.79-30.854,18.172-60.51,35.3-87.709C52.285,66.314,71.779,36.853,98.081,15.564A9.316,9.316,0,0,1,100.414,2.278Z" transform="translate(109 317)" fill="#c1dee2"/>
      <path id="Leaf-3" data-name="Leaf" d="M1.913.031c6.119,1.2,16.118,15.039,21.162,20.314a197.547,197.547,0,0,1,16.56,19.947,337.377,337.377,0,0,1,29.3,47.788,444.19,444.19,0,0,1,32.6,84.838,349.969,349.969,0,0,1,9.891,55.647c.353,3.523,4.047,30.688-1.276,31.42-4.787.659-3.309-20.626-3.54-23.522C104,203.8,96.177,172.015,85.3,141.226c-2.37-6.707-4.571-14.922-8.36-20.958-2.729-4.347-.02-2.831-4.815-4.477-4.118-1.414-8.81-1.068-13.027-2.8-9.161-3.757-16.5-11.05-22.925-18.385-12.5-14.257-22.4-29.68-27.558-47.948A230.852,230.852,0,0,1,1.658,15.9C1.281,13.2-2.028-.74,1.913.031Z" transform="translate(0 244)" fill="#69a1ac"/>
      <path id="Leaf-4" data-name="Leaf" d="M14.061,13.716C37.111,53.69,56.053,97.6,68.283,142.076c7.41,26.947,12.593,54.6,17.742,82.05C94,266.632,101.538,309.134,103.683,352.4c2.158,43.511,6.425,93.7-7.822,135.6,7.117-42.548.341-87.838-.859-130.65-.573-20.438-2.235-40.676-4.414-60.995-2.115-19.71-5.57-39.326-8.787-58.881q-2.351-14.286-4.889-28.537c-.5-2.836-.712-11.25-2.51-13.187S63.354,193,60.454,191.574a74.878,74.878,0,0,1-16.193-11.3c-9.319-8.291-17.426-19.123-23.825-29.8C5.631,125.764-.288,95.61.011,66.994.068,61.438,9,1.61,5.415.786Q5.739.407,6.028,0,10.1,6.823,14.061,13.716Z" transform="translate(12)" fill="#89c5cc"/>
      <path id="Leaf-5" data-name="Leaf" d="M164.846,3.887c.356-.513,2.67-4.081,1.5-3.853C168.724-.43,163.087,3.969,169,1.27c-2.808,2.652-1.187,6.1-1.15,9.665a86.554,86.554,0,0,1-2,17.211,118.022,118.022,0,0,1-8.022,26.013c-8.127,18.166-21.927,35.655-38.31,47.012-8.088,5.608-16.014,7.517-25.239,10.1-5.826,1.631-6.288,4.645-9.381,10.3-6.439,11.776-12.763,23.509-18.441,35.683-6.78,14.536-13.362,29.088-19.571,43.88C25.969,250.957,8.945,302.578,0,356c-.219-31.481,7.064-63.9,16.25-93.912,6.692-21.863,15.4-42.937,24.695-63.8,2.252-5.054,5.664-11.555,6.62-17.135.669-3.909-1.377-7.669-2.315-11.788-3.654-16.037-3.392-34-.184-50.128,3.538-17.779,13.768-26.031,31.074-28.549,6.329-.921,14.374-.584,20.177-3.282,6.323-2.939,8.931-12.6,12.526-18.8a255.666,255.666,0,0,1,34.306-46.665A111.285,111.285,0,0,1,154.888,11.15C157.513,9.053,163.058,6.47,164.846,3.887Z" transform="translate(110 154)" fill="#89c5cc"/>
      <path id="Base-2" data-name="Base" d="M.845,5.729A5,5,0,0,1,5.791,0H67.209a5,5,0,0,1,4.946,5.729L67.408,37.918A20,20,0,0,1,47.622,55H25.378A20,20,0,0,1,5.592,37.918Z" transform="translate(75 476)" fill="#c1dee2"/>
    </g>
    <g id="Background" transform="translate(484 40)" opacity="0.2">
      <circle id="Oval" cx="230" cy="230" r="230" transform="translate(0 63)" fill="#ff9b21"/>
      <path id="Polygon" d="M49,0,98,49,49,98,0,49Z" transform="translate(143)" fill="#2b44ff"/>
      <path id="Polygon-2" data-name="Polygon" d="M12,0,24,12,12,24,0,12Z" transform="translate(391 63)" fill="#2026a2"/>
    </g>
    <g id="Group_4-2" data-name="Group 4" transform="translate(432 180)">
      <g id="Group" transform="matrix(0.999, -0.035, 0.035, 0.999, 0, 11.796)">
        <g transform="matrix(1, 0.03, -0.03, 1, -55.67, -153.83)" filter="url(#base)">
          <rect id="base-3" data-name="base" width="251" height="516" rx="36.45" transform="matrix(1, -0.03, 0.03, 1, 61, 151.8)" fill="#f2f2f2"/>
        </g>
        <path id="Screen" d="M203.974,493.32H24.3A24.279,24.279,0,0,1,0,469.02V24.3A24.28,24.28,0,0,1,24.3,0H53V4.052a13.68,13.68,0,0,0,4.033,9.737,13.68,13.68,0,0,0,9.737,4.033h95.423a13.68,13.68,0,0,0,9.737-4.033,13.68,13.68,0,0,0,4.033-9.737V0h28.011a24.279,24.279,0,0,1,24.3,24.3V469.02a24.28,24.28,0,0,1-24.3,24.3Z" transform="translate(11 10.999)" fill="#1f28cf"/>
        <g id="Illustration" transform="translate(19 0)">
          <rect id="Mask-2" data-name="Mask" width="319" height="504" transform="translate(0 0)" fill="none"/>
          <g id="Illustration-2" data-name="Illustration" clip-path="url(#clip-path)">
            <g id="Group_2" data-name="Group 2" transform="translate(-34.43 -318.255) rotate(14)">
              <g id="Head_Front" data-name="Head/Front" transform="matrix(0.998, 0.07, -0.07, 0.998, 234.218, 229.864)">
                <g id="Head" transform="translate(92.367 52.955)">
                  <path id="Head-2" data-name="Head" d="M0,124.7,14.132,58.915C6.251,49.676.916,38.353,1.807,25.666,4.377-10.89,55.332-2.848,65.243,15.6s8.735,65.251-4.075,68.549c-5.109,1.315-15.992-1.906-27.069-8.574l6.953,49.12Z" transform="translate(0 0)" fill="#b28b67"/>
                </g>
                <path id="hair" d="M89.57,92.243c-6.3,0-12.136-4.019-16.441-11.316-4.08-6.916-6.42-16.284-6.42-25.7,0-.657.013-1.333.04-2.008-4.521,3.1-8.8,7.243-12.931,11.251-4.427,4.291-9,8.729-13.992,12.023-5.6,3.7-11.1,5.5-16.8,5.5-6.363,0-12.283-3.27-16.67-9.208A33.516,33.516,0,0,1,0,53.256a26.776,26.776,0,0,1,1.3-8.45,20.333,20.333,0,0,1,4.087-7.189,19.226,19.226,0,0,1,7.149-5,27.631,27.631,0,0,1,10.486-1.873c24.178,0,36,3.488,46.311,8.725A33.218,33.218,0,0,1,78.21,25.654a13.76,13.76,0,0,1,4.08-2.892A19.136,19.136,0,0,1,85.7,21.3c6.391-2.344,15.548-3.88,25.124-4.214,1.345-.047,2.69-.07,4-.07.5,0,1,0,1.49.01a17.1,17.1,0,1,1,18.031,17.111,86.138,86.138,0,0,1-19.134,3.248,35.727,35.727,0,0,1,1.1,9.164,51.644,51.644,0,0,1-.954,9.529,7.971,7.971,0,0,0-5.889-3.127,10.107,10.107,0,0,0-7.4,3.146,10.419,10.419,0,0,0-2.862,7.1,13.166,13.166,0,0,0,2.643,8.333,9.42,9.42,0,0,0,6.883,3.6,45.856,45.856,0,0,1-8.854,12.213C96.4,90.6,92.932,92.243,89.57,92.243Z" transform="translate(11.973 34.164)" fill="#191847"/>
              </g>
              <g id="Bottom_Skinny_Jeans_1" data-name="Bottom/Skinny Jeans 1" transform="translate(0 522.806)">
                <path id="Skirt_Shadow" data-name="Skirt Shadow" d="M0,26.979S61.533,44.2,106.177,44.2s82.936-26.524,82.936-26.524S128.9,0,89.933,0,0,26.979,0,26.979Z" transform="translate(166.567 140.879)" fill="#1f28cf"/>
                <path id="Leg" d="M103.056,201.632a9.683,9.683,0,0,1-.995-1.944C96.578,185.177,8.75,28.622,0,0H98.883c6.653,21.762,36.6,158.329,40.81,185.576,13.3,42.979,40.671,182.174,44.165,191.817,3.676,10.144-17.009,20.712-22.521,8.241-8.771-19.844-29.669-74.75-38.974-108.276C113.639,245.927,106.536,217.65,103.056,201.632Z" transform="translate(205.2 0)" fill="#997659"/>
                <path id="Leg-2" data-name="Leg" d="M210.041,220.746c-40.154,10.156-187.028,28.517-197.107,31.4C2.566,255.106-6.525,233.718,6.29,229.085c20.392-7.372,76.581-24.4,110.649-31.355,27.4-5.591,52.407-10.153,69.194-12.824C184.712,137.714,178.21,24.461,182.472,0h87.493c-4.086,23.456-38.629,194.6-45.049,211.736-2.037,6.116-8.117,8.819-14.875,9.01Z" transform="translate(17.316 0)" fill="#b28b67"/>
                <g id="Left_Shoe" data-name="Left Shoe" transform="matrix(0.174, 0.985, -0.985, 0.174, 66.519, 211.329)">
                  <path id="shoe" d="M4.474,5.033A2,2,0,0,0,1.908,6.381L0,13.106A64.242,64.242,0,0,0,.9,21H57.3s2.2-7.268-2.538-7.848-7.87-1.047-7.87-1.047L20.68.419a1,1,0,0,0-1.332.532L17.663,5.039s-4.385,2.046-7.127,2.046Z" transform="translate(1 19)" fill="#e4e4e4"/>
                </g>
                <g id="Right_Shoe" data-name="Right Shoe" transform="translate(355.68 340.548)">
                  <path id="shoe-2" data-name="shoe" d="M7.65,8.377a3.42,3.42,0,0,0-4.386,2.308L0,22.192C0,26.821,1.541,35.7,1.541,35.7H97.988s3.759-12.438-4.34-13.43S80.19,20.48,80.19,20.48L35.363.481a1.71,1.71,0,0,0-2.277.911l-2.881,7s-7.5,3.5-12.186,3.5Z" transform="translate(1.71 32.751)" fill="#e4e4e4"/>
                </g>
                <path id="Skirt" d="M39.945,7.9s57.833-16.559,109.44,0c11.97,54.654,41.055,76.347,46.17,160.141-58.14,28.91-129.96-20.618-189.81,7.575C-11.355,136.178,12.585,41.207,39.945,7.9Z" transform="translate(160.125 -7.897)" fill="#2b44ff"/>
              </g>
              <g id="Body_Long_Sleeve_1" data-name="Body/Long Sleeve 1" transform="translate(138.988 298.216) rotate(21)">
                <path id="Skin" d="M2.1,153.519c-1.909-1.176-4-5.6,1.051-9.061,12.586-8.619,30.723-23.7,33.173-28.667C41.336,105.636,58.405,6.657,58.405,6.657L94.149,6.8S61.044,113.528,58.405,120.057c-3.958,9.8,4.418,24.715,8,32.732-5.645,2.523-8.268-.7-11.139-3.919-3.06-3.433-6.406-6.866-14-3.338-9.716,4.515-17.75,11.681-27.325,11.68A22.239,22.239,0,0,1,2.1,153.519Zm305.67-96.043L257.383,27.81,273.476,0l48.456,47.207q21.147,9.007,34.654,19.894c2.026,2.44,4.23,7.113-5.3,5.023s-19.645-3.863-21.435-.77,3.485,7.836.175,11.887a1.253,1.253,0,0,1-1.015.484Q324.454,83.725,307.769,57.476Z" transform="translate(58.435 152.239)" fill="#b28b67"/>
                <path id="Coat_Back" data-name="Coat Back" d="M0,3.811,14.513,0Q60.871,91.6,162.476,160.885l-42.7,62.133C50.133,154.9,4.526,82.332,0,3.811Z" transform="matrix(0.996, 0.087, -0.087, 0.996, 218.754, 5.311)" fill="#191847"/>
                <path id="Shirt" d="M0,194.734H131.708S85.937,83.6,85.937,5.912L46.208,0C14.984,50.15,6.166,111.895,0,194.734Z" transform="translate(153.944)" fill="#dde3e9"/>
                <path id="Coat_Front" data-name="Coat Front" d="M0,251.1C14.4,88.819,105.2,0,105.2,0l.031.027L105.249,0h2.594c4.655.16,14.18.577,14.18.577l9.6,27.4c1.524,50.106,17.791,201.958,17.791,201.958H63.2q.22,10.443.993,21.171Z" transform="translate(94.077 0)" fill="#2f3676"/>
                <path id="Shade" d="M24.124,84.553H.106A435.851,435.851,0,0,1,6.6,0,458.765,458.765,0,0,0,12.4,47.292c3.129,16.926,7.073,29.461,11.723,37.258Z" transform="translate(157.188 146.054)" fill="rgba(0,0,0,0.1)"/>
                <path id="Light" d="M0,19.765,42.573,0V19.765Z" transform="translate(176.37 157.887)" fill="rgba(255,255,255,0.2)"/>
              </g>
            </g>
          </g>
        </g>
      </g>
    </g>
  </g>
</svg>
